<?xml version="1.0" encoding="utf-8"?>
<!-- Generator: Adobe Illustrator 26.3.1, SVG Export Plug-In . SVG Version: 6.00 Build 0)  -->
<svg version="1.1" id="BLUE" xmlns="http://www.w3.org/2000/svg" xmlns:xlink="http://www.w3.org/1999/xlink" x="0px" y="0px"
	 viewBox="0 0 1080 1080" style="enable-background:new 0 0 1080 1080;" xml:space="preserve">
<style type="text/css">
	.st0{fill:#748CA2;}
</style>
<path id="EC_Blue" class="st0" d="M704.3,375.8c-147.4,0-265.6,124.2-265.9,268.8c-0.3,145.1,118.1,270,265.9,270
	c147.5,0,265.9-124.5,265.9-269.4S851.8,375.8,704.3,375.8z M703,830.1c-101.4,0-182.6-85.6-182.4-185
	C520.9,546.1,601.9,461,703,461c101.2,0,182.4,85.3,182.4,184.6S804.2,830.1,703,830.1L703,830.1z"/>
<g id="S_Blue">
	<path class="st0" d="M481.7,630.9C443.6,701.7,411,750.6,384,777.6c-42.4,42.4-93.5,63.6-153.1,63.6S119.1,820,76.3,777.6
		c-42.7-42.4-64.1-93.5-64.1-153.1c0-59.7,19.7-110.1,59-149.4c38.7-38.1,82.7-57.2,131.9-57.2h4.6l28.6,71.9
		c-46.7,6.2-81.8,20.8-105.2,43.8c-23.4,23.1-35.1,53.4-35.1,90.9c0,37.5,13.1,68.6,39.2,95c26.2,26.4,58,39.7,95.5,39.7
		s68.6-13.2,95-39.7c15.4-15.4,38.7-48,70.1-97.8C439,543,477.1,487,510.3,453.8c52.9-52.3,116-80.2,189.1-78.4
		c73.9,1.8,140.6,24.5,191.3,77.8c49.8,52.5,76.2,117.5,79,190.6c2.8,74.4-26.3,137.8-78.9,190c-52.6,52.3-112.9,77.5-173,78.4
		L696,831.6c57.5,3.1,111.3-24.9,139.4-55.3c34.9-37.6,52.9-79.7,51.3-132.5c-1.5-51-18.1-94.8-54.4-131.4
		c-36.3-36.6-80.5-54.9-132.8-54.9c-52.3,0-94.7,18.1-131,54.4C548.8,531.6,519.9,571.3,481.7,630.9L481.7,630.9z"/>
</g>
<rect id="RC_Blue" x="204.8" y="417.9" class="st0" width="393.9" height="73"/>
<rect id="RC_Blue_2" x="831" y="417.9" class="st0" width="236.8" height="73"/>
<ellipse id="EC_Blue_2" class="st0" cx="877.5" cy="174.5" rx="81.9" ry="84.1"/>
</svg>
